<svg width="12" height="12" viewBox="0 0 12 12" fill="none" xmlns="http://www.w3.org/2000/svg">
<path d="M11.25 0.757943C10.925 0.432943 10.4 0.432943 10.075 0.757943L6.00001 4.82461L1.92501 0.749609C1.60001 0.424609 1.07501 0.424609 0.750006 0.749609C0.425006 1.07461 0.425006 1.59961 0.750006 1.92461L4.82501 5.99961L0.750006 10.0746C0.425006 10.3996 0.425006 10.9246 0.750006 11.2496C1.07501 11.5746 1.60001 11.5746 1.92501 11.2496L6.00001 7.17461L10.075 11.2496C10.4 11.5746 10.925 11.5746 11.25 11.2496C11.575 10.9246 11.575 10.3996 11.25 10.0746L7.17501 5.99961L11.25 1.92461C11.5667 1.60794 11.5667 1.07461 11.25 0.757943Z" fill="#596A78"/>
</svg>
