<svg width="40" height="40" viewBox="0 0 40 40" fill="none" xmlns="http://www.w3.org/2000/svg">
<path d="M40 20C40 31.0457 31.0457 40 20 40C8.9543 40 0 31.0457 0 20C0 8.9543 8.9543 0 20 0C31.0457 0 40 8.9543 40 20Z" fill="#F4F6F8"/>
<path fill-rule="evenodd" clip-rule="evenodd" d="M20.0002 6.66665C23.0181 6.66665 25.4543 9.18309 25.4543 12.3005C25.4543 15.4178 23.0181 17.9343 20.0002 17.9343C16.9823 17.9343 14.5461 15.4178 14.5461 12.3005C14.5461 9.18309 16.9823 6.66665 20.0002 6.66665ZM20.0002 33.3333C15.6964 33.3333 11.8653 31.178 9.47944 27.8559C9.22065 27.4956 9.12065 27.0419 9.22375 26.6105C9.28595 26.3502 9.36852 26.0714 9.46791 25.887C11.0014 23.0414 16.8472 21.5023 20.0002 21.5023C23.1378 21.5023 28.9965 23.0419 30.5322 25.8883C30.6299 26.0693 30.7114 26.3414 30.7732 26.5975C30.8794 27.0371 30.7772 27.4997 30.5131 27.8668C28.1267 31.1827 24.2993 33.3333 20.0002 33.3333Z" fill="#DFE3E8"/>
</svg>
