<svg width="40" height="40" viewBox="0 0 40 40" fill="none" xmlns="http://www.w3.org/2000/svg">
<rect width="40" height="40" rx="20" fill="#F4F6F8"/>
<path d="M13 29C12.45 29 11.979 28.8043 11.587 28.413C11.1957 28.021 11 27.55 11 27V17C11 16.45 11.1957 15.979 11.587 15.587C11.979 15.1957 12.45 15 13 15H14.6C14.8209 15 15 14.8209 15 14.6V13C15 12.45 15.196 11.979 15.588 11.587C15.9793 11.1957 16.45 11 17 11H23C23.55 11 24.021 11.1957 24.413 11.587C24.8043 11.979 25 12.45 25 13V18.6C25 18.8209 25.1791 19 25.4 19H27C27.55 19 28.021 19.1957 28.413 19.587C28.8043 19.979 29 20.45 29 21V27C29 27.55 28.8043 28.021 28.413 28.413C28.021 28.8043 27.55 29 27 29H21.4C21.1791 29 21 28.8209 21 28.6V25.4C21 25.1791 20.8209 25 20.6 25H19.4C19.1791 25 19 25.1791 19 25.4V28.6C19 28.8209 18.8209 29 18.6 29H13ZM13 26.6C13 26.8209 13.1791 27 13.4 27H14.6C14.8209 27 15 26.8209 15 26.6V25.4C15 25.1791 14.8209 25 14.6 25H13.4C13.1791 25 13 25.1791 13 25.4V26.6ZM13 22.6C13 22.8209 13.1791 23 13.4 23H14.6C14.8209 23 15 22.8209 15 22.6V21.4C15 21.1791 14.8209 21 14.6 21H13.4C13.1791 21 13 21.1791 13 21.4V22.6ZM13 18.6C13 18.8209 13.1791 19 13.4 19H14.6C14.8209 19 15 18.8209 15 18.6V17.4C15 17.1791 14.8209 17 14.6 17H13.4C13.1791 17 13 17.1791 13 17.4V18.6ZM17 22.6C17 22.8209 17.1791 23 17.4 23H18.6C18.8209 23 19 22.8209 19 22.6V21.4C19 21.1791 18.8209 21 18.6 21H17.4C17.1791 21 17 21.1791 17 21.4V22.6ZM17 18.6C17 18.8209 17.1791 19 17.4 19H18.6C18.8209 19 19 18.8209 19 18.6V17.4C19 17.1791 18.8209 17 18.6 17H17.4C17.1791 17 17 17.1791 17 17.4V18.6ZM17 14.6C17 14.8209 17.1791 15 17.4 15H18.6C18.8209 15 19 14.8209 19 14.6V13.4C19 13.1791 18.8209 13 18.6 13H17.4C17.1791 13 17 13.1791 17 13.4V14.6ZM21 22.6C21 22.8209 21.1791 23 21.4 23H22.6C22.8209 23 23 22.8209 23 22.6V21.4C23 21.1791 22.8209 21 22.6 21H21.4C21.1791 21 21 21.1791 21 21.4V22.6ZM21 18.6C21 18.8209 21.1791 19 21.4 19H22.6C22.8209 19 23 18.8209 23 18.6V17.4C23 17.1791 22.8209 17 22.6 17H21.4C21.1791 17 21 17.1791 21 17.4V18.6ZM21 14.6C21 14.8209 21.1791 15 21.4 15H22.6C22.8209 15 23 14.8209 23 14.6V13.4C23 13.1791 22.8209 13 22.6 13H21.4C21.1791 13 21 13.1791 21 13.4V14.6ZM25 26.6C25 26.8209 25.1791 27 25.4 27H26.6C26.8209 27 27 26.8209 27 26.6V25.4C27 25.1791 26.8209 25 26.6 25H25.4C25.1791 25 25 25.1791 25 25.4V26.6ZM25 22.6C25 22.8209 25.1791 23 25.4 23H26.6C26.8209 23 27 22.8209 27 22.6V21.4C27 21.1791 26.8209 21 26.6 21H25.4C25.1791 21 25 21.1791 25 21.4V22.6Z" fill="#637381"/>
</svg>
